solid NEMA 17 (17HS4401). STL generated by ONSHAPE BY PTC INC, 1.213. Units = meters
   facet normal 0.707107 0.707107 0
      outer loop
         vertex 0.02445 0.00449933 0.00675
         vertex 0.02445 0.00449933 0.00725
         vertex 0.02465 0.00429933 0.00705
      endloop
   endfacet
   facet normal 0.707107 0.707107 0
      outer loop
         vertex 0.02465 0.00429933 0.00705
         vertex 0.02465 0.00429933 0.00695
         vertex 0.02445 0.00449933 0.00675
      endloop
   endfacet
   facet normal 1 0 0
      outer loop
         vertex 0.02465 0.00419933 0.00705
         vertex 0.02465 0.00419933 0.00695
         vertex 0.02465 0.00429933 0.00695
      endloop
   endfacet
   facet normal 1 0 0
      outer loop
         vertex 0.02465 0.00429933 0.00695
         vertex 0.02465 0.00429933 0.00705
         vertex 0.02465 0.00419933 0.00705
      endloop
   endfacet
   facet normal 0.707107 0 0.707107
      outer loop
         vertex 0.02445 0.00449933 0.00725
         vertex 0.02445 0.00399933 0.00725
         vertex 0.02465 0.00419933 0.00705
      endloop
   endfacet
   facet normal 0.707107 0 0.707107
      outer loop
         vertex 0.02465 0.00419933 0.00705
         vertex 0.02465 0.00429933 0.00705
         vertex 0.02445 0.00449933 0.00725
      endloop
   endfacet
   facet normal 0.707107 0 -0.707107
      outer loop
         vertex 0.02445 0.00399933 0.00675
         vertex 0.02445 0.00449933 0.00675
         vertex 0.02465 0.00429933 0.00695
      endloop
   endfacet
   facet normal 0.707107 0 -0.707107
      outer loop
         vertex 0.02465 0.00429933 0.00695
         vertex 0.02465 0.00419933 0.00695
         vertex 0.02445 0.00399933 0.00675
      endloop
   endfacet
   facet normal 0.707107 -0.707107 0
      outer loop
         vertex 0.02445 0.00399933 0.00675
         vertex 0.02465 0.00419933 0.00695
         vertex 0.02465 0.00419933 0.00705
      endloop
   endfacet
   facet normal 0.707107 -0.707107 0
      outer loop
         vertex 0.02465 0.00419933 0.00705
         vertex 0.02445 0.00399933 0.00725
         vertex 0.02445 0.00399933 0.00675
      endloop
   endfacet
   facet normal 0 1 0
      outer loop
         vertex 0.02015 0.00449933 0.00675
         vertex 0.02015 0.00449933 0.00725
         vertex 0.02445 0.00449933 0.00725
      endloop
   endfacet
   facet normal 0 1 0
      outer loop
         vertex 0.02445 0.00449933 0.00725
         vertex 0.02445 0.00449933 0.00675
         vertex 0.02015 0.00449933 0.00675
      endloop
   endfacet
   facet normal -1 0 0
      outer loop
         vertex 0.02015 0.00399933 0.00675
         vertex 0.02015 0.00399933 0.00725
         vertex 0.02015 0.00449933 0.00725
      endloop
   endfacet
   facet normal -1 0 0
      outer loop
         vertex 0.02015 0.00449933 0.00725
         vertex 0.02015 0.00449933 0.00675
         vertex 0.02015 0.00399933 0.00675
      endloop
   endfacet
   facet normal 0 0 -1
      outer loop
         vertex 0.02015 0.00399933 0.00675
         vertex 0.02015 0.00449933 0.00675
         vertex 0.02445 0.00449933 0.00675
      endloop
   endfacet
   facet normal 0 0 -1
      outer loop
         vertex 0.02445 0.00449933 0.00675
         vertex 0.02445 0.00399933 0.00675
         vertex 0.02015 0.00399933 0.00675
      endloop
   endfacet
   facet normal 0 -1 0
      outer loop
         vertex 0.02015 0.00399933 0.00725
         vertex 0.02015 0.00399933 0.00675
         vertex 0.02445 0.00399933 0.00675
      endloop
   endfacet
   facet normal 0 -1 0
      outer loop
         vertex 0.02445 0.00399933 0.00675
         vertex 0.02445 0.00399933 0.00725
         vertex 0.02015 0.00399933 0.00725
      endloop
   endfacet
   facet normal 0 0 1
      outer loop
         vertex 0.02015 0.00449933 0.00725
         vertex 0.02015 0.00399933 0.00725
         vertex 0.02445 0.00399933 0.00725
      endloop
   endfacet
   facet normal 0 0 1
      outer loop
         vertex 0.02445 0.00399933 0.00725
         vertex 0.02445 0.00449933 0.00725
         vertex 0.02015 0.00449933 0.00725
      endloop
   endfacet
endsolid NEMA 17 (17HS4401). Units = meters